<svg width="90" height="76" viewBox="0 0 90 76" fill="none" xmlns="http://www.w3.org/2000/svg">
<path d="M37.9539 0.612048C35.762 0.59067 33.643 1.47723 32.063 3.07668C30.483 4.67614 29.5715 6.85748 29.5289 9.14083L29.4754 12.0106L10.1917 11.8225C7.99987 11.8012 5.88087 12.6877 4.30088 14.2872C2.72089 15.8866 1.80935 18.068 1.76677 20.3513L0.910569 66.2681C0.867992 68.5514 1.69787 70.7497 3.21765 72.3794C4.73742 74.0091 6.8226 74.9367 9.01446 74.9581L80.6395 75.6566C82.8314 75.678 84.9504 74.7915 86.5304 73.192C88.1104 71.5926 89.0219 69.4112 89.0645 67.1279L89.9207 21.2111C89.9633 18.9278 89.1334 16.7294 87.6136 15.0998C86.0938 13.4701 84.0087 12.5425 81.8168 12.5211L62.5331 12.333L62.5866 9.46325C62.6292 7.1799 61.7993 4.98158 60.2796 3.35189C58.7598 1.7222 56.6746 0.794638 54.4828 0.77326L37.9539 0.612048ZM37.8469 6.35164L54.3757 6.51285C55.1063 6.51998 55.8014 6.82917 56.308 7.3724C56.8146 7.91562 57.0912 8.6484 57.077 9.40952L57.0235 12.2793L34.985 12.0644L35.0385 9.19457C35.0527 8.43345 35.3566 7.70634 35.8832 7.17319C36.4099 6.64003 37.1162 6.34451 37.8469 6.35164ZM47.498 46.1365L84.1274 36.373L83.5549 67.0741C83.5407 67.8352 83.2368 68.5624 82.7102 69.0955C82.1835 69.6287 81.4772 69.9242 80.7465 69.9171L9.12149 69.2185C8.39087 69.2113 7.69581 68.9022 7.18922 68.3589C6.68262 67.8157 6.406 67.0829 6.42019 66.3218L6.99277 35.615L43.2446 46.095C44.6309 46.4952 46.0973 46.5095 47.498 46.1365ZM10.0847 17.5621L81.7098 18.2607C82.4404 18.2678 83.1355 18.577 83.6421 19.1203C84.1486 19.6635 84.4253 20.3963 84.4111 21.1574L84.2381 30.4326L46.1854 40.5783C45.7174 40.7033 45.2272 40.6985 44.764 40.5644L7.10344 29.6802L7.27639 20.4051C7.29058 19.6439 7.59443 18.9168 8.12109 18.3837C8.64776 17.8505 9.35409 17.555 10.0847 17.5621Z" fill="black"/>
</svg>
